<?xml version="1.0" standalone="no"?><!DOCTYPE svg PUBLIC "-//W3C//DTD SVG 1.1//EN" "http://www.w3.org/Graphics/SVG/1.1/DTD/svg11.dtd"><svg t="1619517413722" class="icon" viewBox="0 0 1024 1024" version="1.1" xmlns="http://www.w3.org/2000/svg" p-id="1142" xmlns:xlink="http://www.w3.org/1999/xlink" width="480" height="480"><defs><style type="text/css"></style></defs><path d="M972.876884 691.917199a91.560988 91.560988 0 0 0-4.181257-20.678732 85.189549 85.189549 0 0 0-18.545438-26.794175 73.15777 73.15777 0 0 0-22.271591-17.777452 56.802514 56.802514 0 0 0-24.43333-6.542102 33.051838 33.051838 0 0 0-26.794175 9.471826l-13.169537 11.09313c-4.408808 4.408808-9.073611 8.533177-13.937522 12.40155l88.74504 85.729984a46.648034 46.648034 0 0 0 7.39542-6.172331l7.39542-7.850523 9.50027-9.471826c6.712766-5.887892 10.467364-14.449513 10.239812-23.352461l0.056888-0.056888z m-260.546335 94.490712l-37.545978 37.26154-34.616254 34.246483-25.940858 25.627974-13.653083 13.169537c-6.997205 6.59899-12.742877 14.421069-16.952578 23.096465a162.898347 162.898347 0 0 0-5.774116 15.757933l-7.850523 23.892896-7.39542 24.746213a278.807333 278.807333 0 0 0-4.152813 18.147223 21.702713 21.702713 0 0 0 2.019519 17.350793c2.90128 3.327939 8.248738 4.49414 17.03791 3.327939 6.257663-1.194645 12.429994-2.702173 18.545437-4.49414a228.97358 228.97358 0 0 0 26.452849-7.054093c9.102055-2.446177 17.777452-5.774116 26.737287-8.618509l21.788045-10.126036 12.373107-7.39542 11.491345-8.618509 35.469572-35.469572 34.701586-33.848268 37.545978-36.692661 101.345698-98.586637-87.749503-86.128199-103.877207 100.407048zM661.671923 254.705659a90.593895 90.593895 0 0 1-49.862197-12.828209A109.509103 109.509103 0 0 1 577.421023 210.503803a141.707624 141.707624 0 0 1-19.455643-41.243688A164.604982 164.604982 0 0 1 551.821492 128.016426V0.018773H152.44037a87.834834 87.834834 0 0 0-47.41602 12.828209c-14.563289 8.447845-27.761269 19.057428-39.167282 31.430535a157.010455 157.010455 0 0 0-27.277722 41.186801A116.534752 116.534752 0 0 0 28.453309 131.059926v694.17394c0.056888 17.265461 4.721691 34.189595 13.567752 49.037323 9.130499 15.359718 20.536512 29.268797 33.848268 41.186801 13.311756 11.775784 28.159484 21.645825 44.144969 29.382572 12.799765 6.570546 26.851063 10.353588 41.243688 11.09313h288.819594l203.004278-206.360661c-10.922466 8.447845-24.461774 12.828209-38.28552 12.373107H223.948392a62.576631 62.576631 0 0 1-45.624052-18.545438 58.907364 58.907364 0 0 1-18.943653-42.011674 64.766813 64.766813 0 0 1 64.795256-64.340154H616.673637a63.230841 63.230841 0 0 1 46.619589 18.943653c12.629102 11.74734 19.683195 28.330147 19.398756 45.595608 0 12.742877-4.010593 25.172872-11.519789 35.469572l143.613367-144.808012V254.705659h-153.113637z m0 236.397444c-12.572214 11.946448-29.297241 18.48855-46.648034 18.204111H223.948392a64.084158 64.084158 0 0 1-45.595608-18.204111 60.045121 60.045121 0 0 1-18.943653-44.941398 64.055715 64.055715 0 0 1 64.795256-63.941939H616.673637a64.567705 64.567705 0 0 1 46.619589 18.545438c12.629102 11.775784 19.683195 28.330147 19.398756 45.624052 0.227551 17.066354-6.826542 33.393166-19.398756 44.941398h-1.592859l-0.028444-0.227551z m-33.27939-325.938913c3.413271 6.684322 7.850523 12.828209 13.141092 18.20411 5.233682 4.949243 12.230887 7.622971 19.4272 7.39542h153.910067v-16.582807a68.919625 68.919625 0 0 0-2.076407-15.189055 58.167822 58.167822 0 0 0-11.09313-19.910746 265.580909 265.580909 0 0 0-25.627974-28.50081c-11.09313-11.09313-25.997746-25.315091-44.941398-41.186801-18.943653-15.843265-31.82875-28.074152-42.068562-36.237558-10.239812-8.134962-21.418274-16.042373-29.297241-21.475162a71.337359 71.337359 0 0 0-20.650288-9.471826 74.323971 74.323971 0 0 0-17.777452 0h-2.076406v121.626215c-0.113776 13.226424 2.588397 26.339073 7.964298 38.456184l1.137757 2.872836z" p-id="1143"></path></svg>